<?xml version="1.0" standalone="no"?><!DOCTYPE svg PUBLIC "-//W3C//DTD SVG 1.1//EN" "http://www.w3.org/Graphics/SVG/1.1/DTD/svg11.dtd"><svg t="1733901893156" class="icon" viewBox="0 0 1024 1024" version="1.1" xmlns="http://www.w3.org/2000/svg" p-id="6757" xmlns:xlink="http://www.w3.org/1999/xlink" width="20" height="20"><path d="M787 706.5L316.8 236.3c55.2-39.7 122.9-63.2 195.8-63.2 186.1 0 337.3 151.5 337.3 337.3 0.3 73.2-23.2 140.7-62.9 196.1z m-611.5-196c0-73.2 23.5-140.6 63.2-195.8l470.2 470.2C653.7 824.5 586 848 513.1 848c-186.3 0-337.6-151.5-337.6-337.5z m337.4-448c-247.1 0-448 200.9-448 448s200.9 448 448 448 448-200.9 448-448-201-448-448-448z" p-id="6758" fill="#d81e06"></path></svg>